<svg width="480" height="360" viewBox="0 0 480 360" preserveAspectRatio="xMidYMid slice" xmlns="http://www.w3.org/2000/svg"><defs><linearGradient id="s" x1="0" y1="0" x2="0" y2="1"><stop offset="0" stop-color="#BFD8EC"/><stop offset="1" stop-color="#EEF5FB"/></linearGradient></defs><rect width="480" height="360" fill="url(#s)"/><rect x="30" y="170" width="50" height="100" fill="#AABBD1"/><rect x="90" y="150" width="40" height="120" fill="#AABBD1"/><rect x="140" y="190" width="36" height="80" fill="#AABBD1"/><rect x="300" y="140" width="46" height="130" fill="#AABBD1"/><rect x="356" y="175" width="40" height="95" fill="#AABBD1"/><rect x="404" y="120" width="56" height="150" fill="#AABBD1"/><rect x="60" y="200" width="44" height="70" fill="#7A93B3"/><rect x="160" y="160" width="40" height="110" fill="#7A93B3"/><rect x="276" y="185" width="40" height="85" fill="#7A93B3"/><rect x="330" y="160" width="50" height="110" fill="#7A93B3"/><rect x="420" y="200" width="40" height="70" fill="#7A93B3"/><path d="M214 270 V190 L222 190 V130 L230 130 V80 L236 80 V30 L240 8 L244 30 V80 L250 80 V130 L258 130 V190 L266 190 V270Z" fill="#2F4F74"/><rect y="270" width="480" height="90" fill="#E6DDCD"/><rect y="270" width="480" height="8" fill="#D6CBB8"/></svg>