<svg width="480" height="360" viewBox="0 0 480 360" preserveAspectRatio="xMidYMid slice" xmlns="http://www.w3.org/2000/svg"><defs><linearGradient id="s" x1="0" y1="0" x2="0" y2="1"><stop offset="0" stop-color="#BFD8EC"/><stop offset="1" stop-color="#EEF5FB"/></linearGradient></defs><rect width="480" height="360" fill="#EFE7DA"/><rect y="272" width="480" height="88" fill="#D9C7A8"/><rect x="300" y="56" width="136" height="160" fill="url(#s)" stroke="#FFFFFF" stroke-width="8"/><rect x="316" y="150" width="14" height="62" fill="#AABBD1"/><rect x="336" y="120" width="12" height="92" fill="#7A93B3"/><rect x="356" y="160" width="18" height="52" fill="#AABBD1"/><rect x="380" y="136" width="14" height="76" fill="#7A93B3"/><rect x="400" y="170" width="20" height="42" fill="#AABBD1"/><ellipse cx="180" cy="318" rx="170" ry="28" fill="#E6DDCD"/><rect x="50" y="168" width="220" height="50" rx="14" fill="#0D1F35"/><rect x="40" y="206" width="240" height="64" rx="14" fill="#172D47"/><rect x="72" y="184" width="46" height="34" rx="8" fill="#C9A84C"/><rect x="200" y="184" width="46" height="34" rx="8" fill="#DFC06E"/><rect x="56" y="268" width="8" height="14" fill="#6B5424"/><rect x="256" y="268" width="8" height="14" fill="#6B5424"/><ellipse cx="170" cy="300" rx="60" ry="12" fill="#8C6E2A"/><rect x="448" y="120" width="4" height="150" fill="#6B5424"/><path d="M430 124 L450 90 L470 124Z" fill="#C9A84C"/><rect x="18" y="226" width="22" height="46" rx="4" fill="#B08D35"/><circle cx="29" cy="206" r="22" fill="#6E8B6B"/><circle cx="18" cy="190" r="14" fill="#7FA07A"/></svg>